<?xml version="1.0" encoding="utf-8"?>
<!-- Generator: Adobe Illustrator 22.0.1, SVG Export Plug-In . SVG Version: 6.00 Build 0)  -->
<svg version="1.1" id="Layer_1" xmlns="http://www.w3.org/2000/svg" xmlns:xlink="http://www.w3.org/1999/xlink" x="0px" y="0px"
	 viewBox="0 0 432 288" style="enable-background:new 0 0 432 288;" xml:space="preserve">
<style type="text/css">
	.st0{fill:none;}
	.st1{clip-path:url(#SVGID_2_);fill:none;stroke:#FFFFFF;stroke-linecap:round;stroke-linejoin:round;}
	.st2{fill:#FFFFFF;}
	.st3{clip-path:url(#SVGID_4_);fill:none;stroke:#FFFFFF;stroke-linecap:round;stroke-linejoin:round;}
	.st4{clip-path:url(#SVGID_6_);fill:none;stroke:#FFFFFF;stroke-linecap:round;stroke-linejoin:round;}
	.st5{clip-path:url(#SVGID_8_);fill:none;stroke:#FFFFFF;stroke-linecap:round;stroke-linejoin:round;}
	.st6{clip-path:url(#SVGID_10_);fill:none;stroke:#FFFFFF;stroke-linecap:round;stroke-linejoin:round;}
	.st7{clip-path:url(#SVGID_12_);fill:none;stroke:#FFFFFF;stroke-linecap:round;stroke-linejoin:round;}
	.st8{clip-path:url(#SVGID_14_);fill:none;stroke:#FFFFFF;stroke-linecap:round;stroke-linejoin:round;}
	.st9{clip-path:url(#SVGID_16_);fill:none;stroke:#FFFFFF;stroke-linecap:round;stroke-linejoin:round;}
	.st10{clip-path:url(#SVGID_18_);fill:none;stroke:#FFFFFF;stroke-linecap:round;stroke-linejoin:round;}
	.st11{clip-path:url(#SVGID_20_);fill:none;stroke:#FFFFFF;stroke-linecap:round;stroke-linejoin:round;}
	.st12{clip-path:url(#SVGID_22_);fill:none;stroke:#FFFFFF;stroke-linecap:round;stroke-linejoin:round;}
	.st13{clip-path:url(#SVGID_24_);fill:none;stroke:#FFFFFF;stroke-linecap:round;stroke-linejoin:round;}
	.st14{clip-path:url(#SVGID_26_);fill:none;stroke:#FFFFFF;stroke-linecap:round;stroke-linejoin:round;}
	.st15{clip-path:url(#SVGID_28_);fill:none;stroke:#FFFFFF;stroke-linecap:round;stroke-linejoin:round;}
	.st16{clip-path:url(#SVGID_30_);fill:none;stroke:#FFFFFF;stroke-linecap:round;stroke-linejoin:round;}
	.st17{clip-path:url(#SVGID_32_);fill:none;stroke:#FFFFFF;stroke-linecap:round;stroke-linejoin:round;}
	.st18{clip-path:url(#SVGID_34_);fill:none;stroke:#FFFFFF;stroke-linecap:round;stroke-linejoin:round;}
	.st19{clip-path:url(#SVGID_36_);fill:none;stroke:#FFFFFF;stroke-linecap:round;stroke-linejoin:round;}
	.st20{clip-path:url(#SVGID_38_);fill:#4C72B0;fill-opacity:0.25;}
	.st21{clip-path:url(#SVGID_40_);fill:#55A868;fill-opacity:0.25;}
	.st22{clip-path:url(#SVGID_42_);fill:none;stroke:#4C72B0;stroke-width:1.75;stroke-linecap:round;stroke-linejoin:round;}
	.st23{clip-path:url(#SVGID_44_);fill:none;stroke:#55A868;stroke-width:1.75;stroke-linecap:round;stroke-linejoin:round;}
</style>
<g id="figure_1">
	<g id="patch_1">
		<path class="st0" d="M0,288h432V0H0V288z"/>
	</g>
	<g id="axes_1">
		<g id="patch_2">
			<path class="st0" d="M54,252h334.8V34.6H54V252z"/>
		</g>
		<g id="matplotlib.axis_1">
			<g id="xtick_1">
				<g id="line2d_1">
					<g>
						<defs>
							<rect id="SVGID_1_" x="54" y="34.6" width="334.8" height="217.4"/>
						</defs>
						<clipPath id="SVGID_2_">
							<use xlink:href="#SVGID_1_"  style="overflow:visible;"/>
						</clipPath>
						<path class="st1" d="M62.8,252V34.6"/>
					</g>
				</g>
				<g id="line2d_2">
				</g>
				<g id="text_1">
					<g transform="translate(57.049407 266.157812)scale(0.1 -0.1)">
						<g>
							<path id="ArialMT-2212" class="st2" d="M52.8,31.2H5.6v8.2h47.3V31.2z"/>
						</g>
						<g>
							<path id="ArialMT-34" class="st2" d="M90.7,0v17.1H59.7v8.1l32.7,46.4h7.2V25.2h9.7v-8.1h-9.7V0H90.7z M90.7,25.2v32.3
								L68.3,25.2H90.7z"/>
						</g>
					</g>
				</g>
			</g>
			<g id="xtick_2">
				<g id="line2d_3">
					<g>
						<defs>
							<rect id="SVGID_3_" x="54" y="34.6" width="334.8" height="217.4"/>
						</defs>
						<clipPath id="SVGID_4_">
							<use xlink:href="#SVGID_3_"  style="overflow:visible;"/>
						</clipPath>
						<path class="st3" d="M102.4,252V34.6"/>
					</g>
				</g>
				<g id="line2d_4">
				</g>
				<g id="text_2">
					<g transform="translate(96.74705 266.157812)scale(0.1 -0.1)">
						<g>
							<path id="ArialMT-2212_1_" class="st2" d="M52.8,31.2H5.6v8.2h47.3V31.2z"/>
						</g>
						<g>
							<path id="ArialMT-33" class="st2" d="M62.6,18.9l8.8,1.2c1-5,2.7-8.6,5.2-10.8C79,7.1,81.9,6,85.4,6c4.1,0,7.6,1.4,10.5,4.3
								c2.9,2.9,4.3,6.4,4.3,10.7c0,4-1.3,7.4-4,10c-2.6,2.6-6,3.9-10.1,3.9c-1.7,0-3.7-0.3-6.2-1l1,7.7c0.6-0.1,1.1-0.1,1.4-0.1
								c3.8,0,7.1,1,10.1,2.9c3,2,4.5,5,4.5,9c0,3.2-1.1,5.9-3.3,8c-2.2,2.1-5,3.2-8.4,3.2c-3.4,0-6.3-1.1-8.5-3.2
								c-2.3-2.1-3.7-5.4-4.4-9.7l-8.8,1.6c1.1,5.9,3.5,10.4,7.3,13.7c3.8,3.2,8.6,4.9,14.2,4.9c3.9,0,7.5-0.8,10.8-2.5
								c3.3-1.7,5.8-4,7.5-6.9c1.8-2.9,2.6-6,2.6-9.2c0-3.1-0.8-5.9-2.5-8.4c-1.7-2.5-4.1-4.6-7.4-6.1c4.2-1,7.5-3,9.9-6.1
								c2.3-3.1,3.5-6.9,3.5-11.5c0-6.2-2.3-11.5-6.8-15.9c-4.6-4.3-10.3-6.5-17.3-6.5c-6.3,0-11.5,1.9-15.7,5.6
								C65.5,8.1,63.2,12.9,62.6,18.9z"/>
						</g>
					</g>
				</g>
			</g>
			<g id="xtick_3">
				<g id="line2d_5">
					<g>
						<defs>
							<rect id="SVGID_5_" x="54" y="34.6" width="334.8" height="217.4"/>
						</defs>
						<clipPath id="SVGID_6_">
							<use xlink:href="#SVGID_5_"  style="overflow:visible;"/>
						</clipPath>
						<path class="st4" d="M142.1,252V34.6"/>
					</g>
				</g>
				<g id="line2d_6">
				</g>
				<g id="text_3">
					<g transform="translate(136.444694 266.157812)scale(0.1 -0.1)">
						<g>
							<path id="ArialMT-2212_2_" class="st2" d="M52.8,31.2H5.6v8.2h47.3V31.2z"/>
						</g>
						<g>
							<path id="ArialMT-32" class="st2" d="M108.7,8.5V0H61.4c-0.1,2.1,0.3,4.2,1,6.1c1.2,3.2,3.1,6.4,5.8,9.5
								c2.7,3.1,6.5,6.7,11.5,10.8c7.8,6.4,13,11.4,15.8,15.2c2.7,3.7,4.1,7.3,4.1,10.6c0,3.5-1.2,6.4-3.8,8.8
								c-2.5,2.4-5.7,3.6-9.7,3.6c-4.2,0-7.6-1.3-10.2-3.8c-2.5-2.5-3.8-6-3.9-10.5l-9,0.9c0.6,6.7,2.9,11.9,7,15.4
								c4,3.5,9.5,5.3,16.3,5.3c6.9,0,12.3-1.9,16.3-5.7c4-3.8,6-8.5,6-14.2c0-2.9-0.6-5.7-1.8-8.5c-1.2-2.8-3.1-5.7-5.8-8.7
								s-7.2-7.3-13.5-12.6c-5.3-4.4-8.7-7.4-10.2-9c-1.5-1.6-2.7-3.2-3.7-4.8H108.7z"/>
						</g>
					</g>
				</g>
			</g>
			<g id="xtick_4">
				<g id="line2d_7">
					<g>
						<defs>
							<rect id="SVGID_7_" x="54" y="34.6" width="334.8" height="217.4"/>
						</defs>
						<clipPath id="SVGID_8_">
							<use xlink:href="#SVGID_7_"  style="overflow:visible;"/>
						</clipPath>
						<path class="st5" d="M181.8,252V34.6"/>
					</g>
				</g>
				<g id="line2d_8">
				</g>
				<g id="text_4">
					<g transform="translate(176.142337 266.157812)scale(0.1 -0.1)">
						<g>
							<path id="ArialMT-2212_3_" class="st2" d="M52.8,31.2H5.6v8.2h47.3V31.2z"/>
						</g>
						<g>
							<path id="ArialMT-31" class="st2" d="M95.6,0h-8.8v56c-2.1-2-4.9-4-8.3-6s-6.5-3.5-9.2-4.5v8.5c4.9,2.3,9.2,5.1,12.9,8.4
								c3.7,3.3,6.3,6.5,7.8,9.6h5.7V0z"/>
						</g>
					</g>
				</g>
			</g>
			<g id="xtick_5">
				<g id="line2d_9">
					<g>
						<defs>
							<rect id="SVGID_9_" x="54" y="34.6" width="334.8" height="217.4"/>
						</defs>
						<clipPath id="SVGID_10_">
							<use xlink:href="#SVGID_9_"  style="overflow:visible;"/>
						</clipPath>
						<path class="st6" d="M221.5,252V34.6"/>
					</g>
				</g>
				<g id="line2d_10">
				</g>
				<g id="text_5">
					<g transform="translate(218.760293 266.157812)scale(0.1 -0.1)">
						<g>
							<path id="ArialMT-30" class="st2" d="M4.2,35.3c0,8.5,0.9,15.3,2.6,20.4c1.7,5.2,4.3,9.1,7.8,11.9c3.4,2.8,7.8,4.2,13,4.2
								c3.8,0,7.2-0.8,10.1-2.3c2.9-1.5,5.3-3.8,7.2-6.7c1.9-2.9,3.4-6.5,4.5-10.6c1.1-4.2,1.6-9.8,1.6-16.9
								c0-8.4-0.9-15.2-2.6-20.3c-1.7-5.2-4.3-9.1-7.7-12c-3.4-2.8-7.8-4.2-13-4.2c-6.9,0-12.3,2.5-16.2,7.4
								C6.5,12.2,4.2,21.9,4.2,35.3z M13.2,35.3c0-11.8,1.4-19.6,4.1-23.5C20.1,7.9,23.5,6,27.5,6c4,0,7.4,2,10.2,5.9
								s4.1,11.7,4.1,23.4c0,11.8-1.4,19.6-4.1,23.5c-2.8,3.9-6.2,5.8-10.3,5.8c-4,0-7.3-1.7-9.7-5.1C14.7,55.1,13.2,47.1,13.2,35.3
								z"/>
						</g>
					</g>
				</g>
			</g>
			<g id="xtick_6">
				<g id="line2d_11">
					<g>
						<defs>
							<rect id="SVGID_11_" x="54" y="34.6" width="334.8" height="217.4"/>
						</defs>
						<clipPath id="SVGID_12_">
							<use xlink:href="#SVGID_11_"  style="overflow:visible;"/>
						</clipPath>
						<path class="st7" d="M261.2,252V34.6"/>
					</g>
				</g>
				<g id="line2d_12">
				</g>
				<g id="text_6">
					<g transform="translate(258.457936 266.157812)scale(0.1 -0.1)">
						<g>
							<path id="ArialMT-31_1_" class="st2" d="M37.2,0h-8.8v56c-2.1-2-4.9-4-8.3-6s-6.5-3.5-9.2-4.5v8.5c4.9,2.3,9.2,5.1,12.9,8.4
								c3.7,3.3,6.3,6.5,7.8,9.6h5.7V0z"/>
						</g>
					</g>
				</g>
			</g>
			<g id="xtick_7">
				<g id="line2d_13">
					<g>
						<defs>
							<rect id="SVGID_13_" x="54" y="34.6" width="334.8" height="217.4"/>
						</defs>
						<clipPath id="SVGID_14_">
							<use xlink:href="#SVGID_13_"  style="overflow:visible;"/>
						</clipPath>
						<path class="st8" d="M300.9,252V34.6"/>
					</g>
				</g>
				<g id="line2d_14">
				</g>
				<g id="text_7">
					<g transform="translate(298.155579 266.157812)scale(0.1 -0.1)">
						<g>
							<path id="ArialMT-32_1_" class="st2" d="M50.3,8.5V0H3C3,2.1,3.3,4.2,4,6.1c1.2,3.2,3.1,6.4,5.8,9.5
								c2.7,3.1,6.5,6.7,11.5,10.8c7.8,6.4,13,11.4,15.8,15.2c2.7,3.7,4.1,7.3,4.1,10.6c0,3.5-1.2,6.4-3.8,8.8
								c-2.5,2.4-5.7,3.6-9.7,3.6c-4.2,0-7.6-1.3-10.2-3.8c-2.5-2.5-3.8-6-3.9-10.5l-9,0.9c0.6,6.7,2.9,11.9,7,15.4
								c4,3.5,9.5,5.3,16.3,5.3c6.9,0,12.3-1.9,16.3-5.7c4-3.8,6-8.5,6-14.2c0-2.9-0.6-5.7-1.8-8.5c-1.2-2.8-3.1-5.7-5.8-8.7
								s-7.2-7.3-13.5-12.6c-5.3-4.4-8.7-7.4-10.2-9c-1.5-1.6-2.7-3.2-3.7-4.8H50.3z"/>
						</g>
					</g>
				</g>
			</g>
			<g id="xtick_8">
				<g id="line2d_15">
					<g>
						<defs>
							<rect id="SVGID_15_" x="54" y="34.6" width="334.8" height="217.4"/>
						</defs>
						<clipPath id="SVGID_16_">
							<use xlink:href="#SVGID_15_"  style="overflow:visible;"/>
						</clipPath>
						<path class="st9" d="M340.6,252V34.6"/>
					</g>
				</g>
				<g id="line2d_16">
				</g>
				<g id="text_8">
					<g transform="translate(337.853223 266.157812)scale(0.1 -0.1)">
						<g>
							<path id="ArialMT-33_1_" class="st2" d="M4.2,18.9l8.8,1.2c1-5,2.7-8.6,5.2-10.8C20.6,7.1,23.5,6,27,6
								c4.1,0,7.6,1.4,10.5,4.3c2.9,2.9,4.3,6.4,4.3,10.7c0,4-1.3,7.4-4,10c-2.6,2.6-6,3.9-10.1,3.9c-1.7,0-3.7-0.3-6.2-1l1,7.7
								c0.6-0.1,1.1-0.1,1.4-0.1c3.8,0,7.1,1,10.1,2.9c3,2,4.5,5,4.5,9c0,3.2-1.1,5.9-3.3,8c-2.2,2.1-5,3.2-8.4,3.2
								c-3.4,0-6.3-1.1-8.5-3.2c-2.3-2.1-3.7-5.4-4.4-9.7l-8.8,1.6c1.1,5.9,3.5,10.4,7.3,13.7c3.8,3.2,8.6,4.9,14.2,4.9
								c3.9,0,7.5-0.8,10.8-2.5c3.3-1.7,5.8-4,7.5-6.9c1.8-2.9,2.6-6,2.6-9.2c0-3.1-0.8-5.9-2.5-8.4c-1.7-2.5-4.1-4.6-7.4-6.1
								c4.2-1,7.5-3,9.9-6.1c2.3-3.1,3.5-6.9,3.5-11.5c0-6.2-2.3-11.5-6.8-15.9C39.7,0.9,33.9-1.3,27-1.3c-6.3,0-11.5,1.9-15.7,5.6
								C7.2,8.1,4.8,12.9,4.2,18.9z"/>
						</g>
					</g>
				</g>
			</g>
			<g id="xtick_9">
				<g id="line2d_17">
					<g>
						<defs>
							<rect id="SVGID_17_" x="54" y="34.6" width="334.8" height="217.4"/>
						</defs>
						<clipPath id="SVGID_18_">
							<use xlink:href="#SVGID_17_"  style="overflow:visible;"/>
						</clipPath>
						<path class="st10" d="M380.3,252V34.6"/>
					</g>
				</g>
				<g id="line2d_18">
				</g>
				<g id="text_9">
					<g transform="translate(377.550866 266.157812)scale(0.1 -0.1)">
						<g>
							<path id="ArialMT-34_1_" class="st2" d="M32.3,0v17.1H1.3v8.1l32.7,46.4h7.2V25.2h9.7v-8.1h-9.7V0H32.3z M32.3,25.2v32.3
								L9.9,25.2H32.3z"/>
						</g>
					</g>
				</g>
			</g>
		</g>
		<g id="matplotlib.axis_2">
			<g id="ytick_1">
				<g id="line2d_19">
					<g>
						<defs>
							<rect id="SVGID_19_" x="54" y="34.6" width="334.8" height="217.4"/>
						</defs>
						<clipPath id="SVGID_20_">
							<use xlink:href="#SVGID_19_"  style="overflow:visible;"/>
						</clipPath>
						<path class="st11" d="M54,252h334.8"/>
					</g>
				</g>
				<g id="line2d_20">
				</g>
				<g id="text_10">
					<g transform="translate(27.539062 255.578906)scale(0.1 -0.1)">
						<g>
							<path id="ArialMT-30_1_" class="st2" d="M4.2,35.3c0,8.5,0.9,15.3,2.6,20.4c1.7,5.2,4.3,9.1,7.7,11.9c3.4,2.8,7.8,4.2,13,4.2
								c3.8,0,7.2-0.8,10.1-2.3c2.9-1.5,5.3-3.8,7.2-6.7c1.9-2.9,3.4-6.5,4.5-10.6c1.1-4.2,1.6-9.8,1.6-16.9
								c0-8.4-0.9-15.2-2.6-20.3c-1.7-5.2-4.3-9.1-7.7-12c-3.4-2.8-7.8-4.2-13-4.2c-6.9,0-12.3,2.5-16.2,7.4
								C6.5,12.2,4.2,21.9,4.2,35.3z M13.2,35.3c0-11.8,1.4-19.6,4.1-23.5C20.1,7.9,23.5,6,27.5,6c4,0,7.4,2,10.2,5.9
								s4.1,11.7,4.1,23.4c0,11.8-1.4,19.6-4.1,23.5c-2.8,3.9-6.2,5.8-10.3,5.8c-4,0-7.3-1.7-9.7-5.1C14.7,55.1,13.2,47.1,13.2,35.3
								z"/>
						</g>
						<g>
							<path id="ArialMT-2e" class="st2" d="M64.7,0v10h10V0H64.7z"/>
						</g>
						<g>
							<path id="ArialMT-30_2_" class="st2" d="M87.6,35.3c0,8.5,0.9,15.3,2.6,20.4c1.7,5.2,4.3,9.1,7.8,11.9
								c3.4,2.8,7.8,4.2,13,4.2c3.8,0,7.2-0.8,10.1-2.3c2.9-1.5,5.3-3.8,7.2-6.7c1.9-2.9,3.4-6.5,4.5-10.6c1.1-4.2,1.6-9.8,1.6-16.9
								c0-8.4-0.9-15.2-2.6-20.3c-1.7-5.2-4.3-9.1-7.7-12c-3.4-2.8-7.8-4.2-13-4.2c-6.9,0-12.3,2.5-16.2,7.4
								C89.9,12.2,87.6,21.9,87.6,35.3z M96.6,35.3c0-11.8,1.4-19.6,4.1-23.5c2.8-3.9,6.1-5.8,10.2-5.8c4,0,7.4,2,10.2,5.9
								s4.1,11.7,4.1,23.4c0,11.8-1.4,19.6-4.1,23.5c-2.8,3.9-6.2,5.8-10.3,5.8c-4,0-7.3-1.7-9.7-5.1C98.1,55.1,96.6,47.1,96.6,35.3
								z"/>
						</g>
						<g>
							<path id="ArialMT-30_3_" class="st2" d="M143.2,35.3c0,8.5,0.9,15.3,2.6,20.4c1.7,5.2,4.3,9.1,7.8,11.9
								c3.4,2.8,7.8,4.2,13,4.2c3.8,0,7.2-0.8,10.1-2.3c2.9-1.5,5.3-3.8,7.2-6.7c1.9-2.9,3.4-6.5,4.5-10.6c1.1-4.2,1.6-9.8,1.6-16.9
								c0-8.4-0.9-15.2-2.6-20.3c-1.7-5.2-4.3-9.1-7.7-12c-3.4-2.8-7.8-4.2-13-4.2c-6.9,0-12.3,2.5-16.2,7.4
								C145.5,12.2,143.2,21.9,143.2,35.3z M152.2,35.3c0-11.8,1.4-19.6,4.1-23.5c2.8-3.9,6.1-5.8,10.2-5.8c4,0,7.4,2,10.2,5.9
								c2.8,3.9,4.1,11.7,4.1,23.4c0,11.8-1.4,19.6-4.1,23.5c-2.8,3.9-6.2,5.8-10.3,5.8c-4,0-7.3-1.7-9.7-5.1
								C153.7,55.1,152.2,47.1,152.2,35.3z"/>
						</g>
					</g>
				</g>
			</g>
			<g id="ytick_2">
				<g id="line2d_21">
					<g>
						<defs>
							<rect id="SVGID_21_" x="54" y="34.6" width="334.8" height="217.4"/>
						</defs>
						<clipPath id="SVGID_22_">
							<use xlink:href="#SVGID_21_"  style="overflow:visible;"/>
						</clipPath>
						<path class="st12" d="M54,226.4h334.8"/>
					</g>
				</g>
				<g id="line2d_22">
				</g>
				<g id="text_11">
					<g transform="translate(27.539062 229.937018)scale(0.1 -0.1)">
						<g>
							<path id="ArialMT-30_4_" class="st2" d="M4.2,35.3c0,8.5,0.9,15.3,2.6,20.4c1.7,5.2,4.3,9.1,7.7,11.9c3.4,2.8,7.8,4.2,13,4.2
								c3.8,0,7.2-0.8,10.1-2.3c2.9-1.5,5.3-3.8,7.2-6.7c1.9-2.9,3.4-6.5,4.5-10.6c1.1-4.2,1.6-9.8,1.6-16.9
								c0-8.4-0.9-15.2-2.6-20.3c-1.7-5.2-4.3-9.1-7.7-12c-3.4-2.8-7.8-4.2-13-4.2c-6.9,0-12.3,2.5-16.2,7.4
								C6.5,12.2,4.2,21.9,4.2,35.3z M13.2,35.3c0-11.8,1.4-19.6,4.1-23.5C20.1,7.9,23.5,6,27.5,6c4,0,7.4,2,10.2,5.9
								s4.1,11.7,4.1,23.4c0,11.8-1.4,19.6-4.1,23.5c-2.8,3.9-6.2,5.8-10.3,5.8c-4,0-7.3-1.7-9.7-5.1C14.7,55.1,13.2,47.1,13.2,35.3
								z"/>
						</g>
						<g>
							<path id="ArialMT-2e_1_" class="st2" d="M64.7,0v10h10V0H64.7z"/>
						</g>
						<g>
							<path id="ArialMT-30_5_" class="st2" d="M87.6,35.3c0,8.5,0.9,15.3,2.6,20.4c1.7,5.2,4.3,9.1,7.8,11.9
								c3.4,2.8,7.8,4.2,13,4.2c3.8,0,7.2-0.8,10.1-2.3c2.9-1.5,5.3-3.8,7.2-6.7c1.9-2.9,3.4-6.5,4.5-10.6c1.1-4.2,1.6-9.8,1.6-16.9
								c0-8.4-0.9-15.2-2.6-20.3c-1.7-5.2-4.3-9.1-7.7-12c-3.4-2.8-7.8-4.2-13-4.2c-6.9,0-12.3,2.5-16.2,7.4
								C89.9,12.2,87.6,21.9,87.6,35.3z M96.6,35.3c0-11.8,1.4-19.6,4.1-23.5c2.8-3.9,6.1-5.8,10.2-5.8c4,0,7.4,2,10.2,5.9
								s4.1,11.7,4.1,23.4c0,11.8-1.4,19.6-4.1,23.5c-2.8,3.9-6.2,5.8-10.3,5.8c-4,0-7.3-1.7-9.7-5.1C98.1,55.1,96.6,47.1,96.6,35.3
								z"/>
						</g>
						<g>
							<path id="ArialMT-35" class="st2" d="M143.2,18.8l9.2,0.8c0.7-4.5,2.3-7.9,4.8-10.1c2.5-2.3,5.5-3.4,9-3.4
								c4.2,0,7.8,1.6,10.7,4.8c2.9,3.2,4.4,7.4,4.4,12.7c0,5-1.4,9-4.2,11.9c-2.8,2.9-6.5,4.4-11.1,4.4c-2.8,0-5.4-0.6-7.7-1.9
								c-2.3-1.3-4.1-2.9-5.4-5l-8.2,1.1l6.9,36.8h35.6v-8.4h-28.6L154.8,43c4.3,3,8.8,4.5,13.5,4.5c6.2,0,11.5-2.2,15.8-6.5
								c4.3-4.3,6.5-9.9,6.5-16.7c0-6.5-1.9-12.1-5.7-16.8c-4.6-5.8-10.9-8.7-18.8-8.7c-6.5,0-11.8,1.8-16,5.5
								C146.1,7.9,143.8,12.7,143.2,18.8z"/>
						</g>
					</g>
				</g>
			</g>
			<g id="ytick_3">
				<g id="line2d_23">
					<g>
						<defs>
							<rect id="SVGID_23_" x="54" y="34.6" width="334.8" height="217.4"/>
						</defs>
						<clipPath id="SVGID_24_">
							<use xlink:href="#SVGID_23_"  style="overflow:visible;"/>
						</clipPath>
						<path class="st13" d="M54,200.7h334.8"/>
					</g>
				</g>
				<g id="line2d_24">
				</g>
				<g id="text_12">
					<g transform="translate(27.539062 204.29513)scale(0.1 -0.1)">
						<g>
							<path id="ArialMT-30_6_" class="st2" d="M4.2,35.3c0,8.5,0.9,15.3,2.6,20.4c1.7,5.2,4.3,9.1,7.7,11.9c3.4,2.8,7.8,4.2,13,4.2
								c3.8,0,7.2-0.8,10.1-2.3c2.9-1.5,5.3-3.8,7.2-6.7c1.9-2.9,3.4-6.5,4.5-10.6c1.1-4.2,1.6-9.8,1.6-16.9
								c0-8.4-0.9-15.2-2.6-20.3c-1.7-5.2-4.3-9.1-7.7-12c-3.4-2.8-7.8-4.2-13-4.2c-6.9,0-12.3,2.5-16.2,7.4
								C6.5,12.2,4.2,21.9,4.2,35.3z M13.2,35.3c0-11.8,1.4-19.6,4.1-23.5C20.1,7.9,23.5,6,27.5,6c4,0,7.4,2,10.2,5.9
								s4.1,11.7,4.1,23.4c0,11.8-1.4,19.6-4.1,23.5c-2.8,3.9-6.2,5.8-10.3,5.8c-4,0-7.3-1.7-9.7-5.1C14.7,55.1,13.2,47.1,13.2,35.3
								z"/>
						</g>
						<g>
							<path id="ArialMT-2e_2_" class="st2" d="M64.7,0v10h10V0H64.7z"/>
						</g>
						<g>
							<path id="ArialMT-31_2_" class="st2" d="M120.6,0h-8.8v56c-2.1-2-4.9-4-8.3-6s-6.5-3.5-9.2-4.5v8.5c4.9,2.3,9.2,5.1,12.9,8.4
								c3.7,3.3,6.3,6.5,7.8,9.6h5.7V0z"/>
						</g>
						<g>
							<path id="ArialMT-30_7_" class="st2" d="M143.2,35.3c0,8.5,0.9,15.3,2.6,20.4c1.7,5.2,4.3,9.1,7.8,11.9
								c3.4,2.8,7.8,4.2,13,4.2c3.8,0,7.2-0.8,10.1-2.3c2.9-1.5,5.3-3.8,7.2-6.7c1.9-2.9,3.4-6.5,4.5-10.6c1.1-4.2,1.6-9.8,1.6-16.9
								c0-8.4-0.9-15.2-2.6-20.3c-1.7-5.2-4.3-9.1-7.7-12c-3.4-2.8-7.8-4.2-13-4.2c-6.9,0-12.3,2.5-16.2,7.4
								C145.5,12.2,143.2,21.9,143.2,35.3z M152.2,35.3c0-11.8,1.4-19.6,4.1-23.5c2.8-3.9,6.1-5.8,10.2-5.8c4,0,7.4,2,10.2,5.9
								c2.8,3.9,4.1,11.7,4.1,23.4c0,11.8-1.4,19.6-4.1,23.5c-2.8,3.9-6.2,5.8-10.3,5.8c-4,0-7.3-1.7-9.7-5.1
								C153.7,55.1,152.2,47.1,152.2,35.3z"/>
						</g>
					</g>
				</g>
			</g>
			<g id="ytick_4">
				<g id="line2d_25">
					<g>
						<defs>
							<rect id="SVGID_25_" x="54" y="34.6" width="334.8" height="217.4"/>
						</defs>
						<clipPath id="SVGID_26_">
							<use xlink:href="#SVGID_25_"  style="overflow:visible;"/>
						</clipPath>
						<path class="st14" d="M54,175.1h334.8"/>
					</g>
				</g>
				<g id="line2d_26">
				</g>
				<g id="text_13">
					<g transform="translate(27.539062 178.653241)scale(0.1 -0.1)">
						<g>
							<path id="ArialMT-30_8_" class="st2" d="M4.2,35.3c0,8.5,0.9,15.3,2.6,20.4c1.7,5.2,4.3,9.1,7.7,11.9c3.4,2.8,7.8,4.2,13,4.2
								c3.8,0,7.2-0.8,10.1-2.3c2.9-1.5,5.3-3.8,7.2-6.7c1.9-2.9,3.4-6.5,4.5-10.6c1.1-4.2,1.6-9.8,1.6-16.9
								c0-8.4-0.9-15.2-2.6-20.3c-1.7-5.2-4.3-9.1-7.7-12c-3.4-2.8-7.8-4.2-13-4.2c-6.9,0-12.3,2.5-16.2,7.4
								C6.5,12.2,4.2,21.9,4.2,35.3z M13.2,35.3c0-11.8,1.4-19.6,4.1-23.5C20.1,7.9,23.5,6,27.5,6c4,0,7.4,2,10.2,5.9
								s4.1,11.7,4.1,23.4c0,11.8-1.4,19.6-4.1,23.5c-2.8,3.9-6.2,5.8-10.3,5.8c-4,0-7.3-1.7-9.7-5.1C14.7,55.1,13.2,47.1,13.2,35.3
								z"/>
						</g>
						<g>
							<path id="ArialMT-2e_3_" class="st2" d="M64.7,0v10h10V0H64.7z"/>
						</g>
						<g>
							<path id="ArialMT-31_3_" class="st2" d="M120.6,0h-8.8v56c-2.1-2-4.9-4-8.3-6s-6.5-3.5-9.2-4.5v8.5c4.9,2.3,9.2,5.1,12.9,8.4
								c3.7,3.3,6.3,6.5,7.8,9.6h5.7V0z"/>
						</g>
						<g>
							<path id="ArialMT-35_1_" class="st2" d="M143.2,18.8l9.2,0.8c0.7-4.5,2.3-7.9,4.8-10.1c2.5-2.3,5.5-3.4,9-3.4
								c4.2,0,7.8,1.6,10.7,4.8c2.9,3.2,4.4,7.4,4.4,12.7c0,5-1.4,9-4.2,11.9c-2.8,2.9-6.5,4.4-11.1,4.4c-2.8,0-5.4-0.6-7.7-1.9
								c-2.3-1.3-4.1-2.9-5.4-5l-8.2,1.1l6.9,36.8h35.6v-8.4h-28.6L154.8,43c4.3,3,8.8,4.5,13.5,4.5c6.2,0,11.5-2.2,15.8-6.5
								c4.3-4.3,6.5-9.9,6.5-16.7c0-6.5-1.9-12.1-5.7-16.8c-4.6-5.8-10.9-8.7-18.8-8.7c-6.5,0-11.8,1.8-16,5.5
								C146.1,7.9,143.8,12.7,143.2,18.8z"/>
						</g>
					</g>
				</g>
			</g>
			<g id="ytick_5">
				<g id="line2d_27">
					<g>
						<defs>
							<rect id="SVGID_27_" x="54" y="34.6" width="334.8" height="217.4"/>
						</defs>
						<clipPath id="SVGID_28_">
							<use xlink:href="#SVGID_27_"  style="overflow:visible;"/>
						</clipPath>
						<path class="st15" d="M54,149.4h334.8"/>
					</g>
				</g>
				<g id="line2d_28">
				</g>
				<g id="text_14">
					<g transform="translate(27.539062 153.011353)scale(0.1 -0.1)">
						<g>
							<path id="ArialMT-30_9_" class="st2" d="M4.2,35.3c0,8.5,0.9,15.3,2.6,20.4c1.7,5.2,4.3,9.1,7.7,11.9c3.4,2.8,7.8,4.2,13,4.2
								c3.8,0,7.2-0.8,10.1-2.3c2.9-1.5,5.3-3.8,7.2-6.7c1.9-2.9,3.4-6.5,4.5-10.6c1.1-4.2,1.6-9.8,1.6-16.9
								c0-8.4-0.9-15.2-2.6-20.3c-1.7-5.2-4.3-9.1-7.7-12c-3.4-2.8-7.8-4.2-13-4.2c-6.9,0-12.3,2.5-16.2,7.4
								C6.5,12.2,4.2,21.9,4.2,35.3z M13.2,35.3c0-11.7,1.4-19.6,4.1-23.5C20.1,7.9,23.5,6,27.5,6c4,0,7.4,2,10.2,5.9
								s4.1,11.7,4.1,23.4c0,11.8-1.4,19.6-4.1,23.5c-2.8,3.9-6.2,5.8-10.3,5.8c-4,0-7.3-1.7-9.7-5.1C14.7,55.1,13.2,47.1,13.2,35.3
								z"/>
						</g>
						<g>
							<path id="ArialMT-2e_4_" class="st2" d="M64.7,0v10h10V0H64.7z"/>
						</g>
						<g>
							<path id="ArialMT-32_2_" class="st2" d="M133.7,8.5V0H86.4c-0.1,2.1,0.3,4.2,1,6.1c1.2,3.2,3.1,6.4,5.8,9.5
								c2.7,3.1,6.5,6.7,11.5,10.8c7.8,6.4,13,11.4,15.8,15.2c2.7,3.7,4.1,7.3,4.1,10.6c0,3.5-1.2,6.4-3.8,8.8
								c-2.5,2.4-5.7,3.6-9.7,3.6c-4.2,0-7.6-1.3-10.2-3.8c-2.5-2.5-3.8-6-3.9-10.5l-9,0.9c0.6,6.7,2.9,11.9,7,15.4
								c4,3.5,9.5,5.3,16.3,5.3c6.9,0,12.3-1.9,16.3-5.7c4-3.8,6-8.5,6-14.2c0-2.9-0.6-5.7-1.8-8.5c-1.2-2.8-3.1-5.7-5.8-8.7
								c-2.7-3.1-7.2-7.3-13.5-12.6c-5.3-4.4-8.7-7.4-10.2-9c-1.5-1.6-2.7-3.2-3.7-4.8H133.7z"/>
						</g>
						<g>
							<path id="ArialMT-30_10_" class="st2" d="M143.2,35.3c0,8.5,0.9,15.3,2.6,20.4c1.7,5.2,4.3,9.1,7.8,11.9
								c3.4,2.8,7.8,4.2,13,4.2c3.8,0,7.2-0.8,10.1-2.3c2.9-1.5,5.3-3.8,7.2-6.7c1.9-2.9,3.4-6.5,4.5-10.6c1.1-4.2,1.6-9.8,1.6-16.9
								c0-8.4-0.9-15.2-2.6-20.3c-1.7-5.2-4.3-9.1-7.7-12c-3.4-2.8-7.8-4.2-13-4.2c-6.9,0-12.3,2.5-16.2,7.4
								C145.5,12.2,143.2,21.9,143.2,35.3z M152.2,35.3c0-11.7,1.4-19.6,4.1-23.5c2.8-3.9,6.1-5.8,10.2-5.8c4,0,7.4,2,10.2,5.9
								c2.8,3.9,4.1,11.7,4.1,23.4c0,11.8-1.4,19.6-4.1,23.5c-2.8,3.9-6.2,5.8-10.3,5.8c-4,0-7.3-1.7-9.7-5.1
								C153.7,55.1,152.2,47.1,152.2,35.3z"/>
						</g>
					</g>
				</g>
			</g>
			<g id="ytick_6">
				<g id="line2d_29">
					<g>
						<defs>
							<rect id="SVGID_29_" x="54" y="34.6" width="334.8" height="217.4"/>
						</defs>
						<clipPath id="SVGID_30_">
							<use xlink:href="#SVGID_29_"  style="overflow:visible;"/>
						</clipPath>
						<path class="st16" d="M54,123.8h334.8"/>
					</g>
				</g>
				<g id="line2d_30">
				</g>
				<g id="text_15">
					<g transform="translate(27.539062 127.369465)scale(0.1 -0.1)">
						<g>
							<path id="ArialMT-30_11_" class="st2" d="M4.2,35.3c0,8.5,0.9,15.3,2.6,20.4c1.7,5.2,4.3,9.1,7.7,11.9
								c3.4,2.8,7.8,4.2,13,4.2c3.8,0,7.2-0.8,10.1-2.3c2.9-1.5,5.3-3.8,7.2-6.7c1.9-2.9,3.4-6.5,4.5-10.6c1.1-4.2,1.6-9.8,1.6-16.9
								c0-8.4-0.9-15.2-2.6-20.3c-1.7-5.2-4.3-9.1-7.7-12c-3.4-2.8-7.8-4.2-13-4.2c-6.9,0-12.3,2.5-16.2,7.4
								C6.5,12.2,4.2,21.9,4.2,35.3z M13.2,35.3c0-11.8,1.4-19.6,4.1-23.5C20.1,7.9,23.5,6,27.5,6c4,0,7.4,2,10.2,5.9
								s4.1,11.7,4.1,23.4c0,11.8-1.4,19.6-4.1,23.5c-2.8,3.9-6.2,5.8-10.3,5.8c-4,0-7.3-1.7-9.7-5.1C14.7,55.1,13.2,47.1,13.2,35.3
								z"/>
						</g>
						<g>
							<path id="ArialMT-2e_5_" class="st2" d="M64.7,0v10h10V0H64.7z"/>
						</g>
						<g>
							<path id="ArialMT-32_3_" class="st2" d="M133.7,8.5V0H86.4c-0.1,2.1,0.3,4.2,1,6.1c1.2,3.2,3.1,6.4,5.8,9.5
								c2.7,3.1,6.5,6.7,11.5,10.8c7.8,6.4,13,11.4,15.8,15.2c2.7,3.7,4.1,7.3,4.1,10.6c0,3.5-1.2,6.4-3.8,8.8
								c-2.5,2.4-5.7,3.6-9.7,3.6c-4.2,0-7.6-1.3-10.2-3.8c-2.5-2.5-3.8-6-3.9-10.5l-9,0.9c0.6,6.7,2.9,11.9,7,15.4
								c4,3.5,9.5,5.3,16.3,5.3c6.9,0,12.3-1.9,16.3-5.7c4-3.8,6-8.5,6-14.2c0-2.9-0.6-5.7-1.8-8.5c-1.2-2.8-3.1-5.7-5.8-8.7
								c-2.7-3.1-7.2-7.3-13.5-12.6c-5.3-4.4-8.7-7.4-10.2-9c-1.5-1.6-2.7-3.2-3.7-4.8H133.7z"/>
						</g>
						<g>
							<path id="ArialMT-35_2_" class="st2" d="M143.2,18.8l9.2,0.8c0.7-4.5,2.3-7.9,4.8-10.1c2.5-2.3,5.5-3.4,9-3.4
								c4.2,0,7.8,1.6,10.7,4.8c2.9,3.2,4.4,7.4,4.4,12.7c0,5-1.4,9-4.2,11.9c-2.8,2.9-6.5,4.4-11.1,4.4c-2.8,0-5.4-0.6-7.7-1.9
								c-2.3-1.3-4.1-2.9-5.4-5l-8.2,1.1l6.9,36.8h35.6v-8.4h-28.6L154.8,43c4.3,3,8.8,4.5,13.5,4.5c6.2,0,11.5-2.2,15.8-6.5
								c4.3-4.3,6.5-9.9,6.5-16.7c0-6.5-1.9-12.1-5.7-16.8c-4.6-5.8-10.9-8.7-18.8-8.7c-6.5,0-11.8,1.8-16,5.5
								C146.1,7.9,143.8,12.7,143.2,18.8z"/>
						</g>
					</g>
				</g>
			</g>
			<g id="ytick_7">
				<g id="line2d_31">
					<g>
						<defs>
							<rect id="SVGID_31_" x="54" y="34.6" width="334.8" height="217.4"/>
						</defs>
						<clipPath id="SVGID_32_">
							<use xlink:href="#SVGID_31_"  style="overflow:visible;"/>
						</clipPath>
						<path class="st17" d="M54,98.1h334.8"/>
					</g>
				</g>
				<g id="line2d_32">
				</g>
				<g id="text_16">
					<g transform="translate(27.539062 101.727576)scale(0.1 -0.1)">
						<g>
							<path id="ArialMT-30_12_" class="st2" d="M4.2,35.3c0,8.5,0.9,15.3,2.6,20.4c1.7,5.2,4.3,9.1,7.7,11.9
								c3.4,2.8,7.8,4.2,13,4.2c3.8,0,7.2-0.8,10.1-2.3c2.9-1.5,5.3-3.8,7.2-6.7c1.9-2.9,3.4-6.5,4.5-10.6c1.1-4.2,1.6-9.8,1.6-16.9
								c0-8.4-0.9-15.2-2.6-20.3c-1.7-5.2-4.3-9.1-7.7-12c-3.4-2.8-7.8-4.2-13-4.2c-6.9,0-12.3,2.5-16.2,7.4
								C6.5,12.2,4.2,21.9,4.2,35.3z M13.2,35.3c0-11.8,1.4-19.6,4.1-23.5C20.1,7.9,23.5,6,27.5,6c4,0,7.4,2,10.2,5.9
								s4.1,11.7,4.1,23.4c0,11.8-1.4,19.6-4.1,23.5c-2.8,3.9-6.2,5.8-10.3,5.8c-4,0-7.3-1.7-9.7-5.1C14.7,55.1,13.2,47.1,13.2,35.3
								z"/>
						</g>
						<g>
							<path id="ArialMT-2e_6_" class="st2" d="M64.7,0v10h10V0H64.7z"/>
						</g>
						<g>
							<path id="ArialMT-33_2_" class="st2" d="M87.6,18.9l8.8,1.2c1-5,2.7-8.6,5.2-10.8s5.4-3.3,8.9-3.3c4.1,0,7.6,1.4,10.5,4.3
								c2.9,2.9,4.3,6.4,4.3,10.7c0,4-1.3,7.4-4,10c-2.6,2.6-6,3.9-10.1,3.9c-1.7,0-3.7-0.3-6.2-1l1,7.7c0.6-0.1,1.1-0.1,1.4-0.1
								c3.8,0,7.1,1,10.1,2.9c3,2,4.5,5,4.5,9c0,3.2-1.1,5.9-3.3,8c-2.2,2.1-5,3.2-8.4,3.2c-3.4,0-6.3-1.1-8.5-3.2
								c-2.3-2.1-3.7-5.4-4.4-9.7l-8.8,1.6c1.1,5.9,3.5,10.4,7.3,13.7c3.8,3.2,8.6,4.9,14.2,4.9c3.9,0,7.5-0.8,10.8-2.5
								c3.3-1.7,5.8-4,7.5-6.9c1.8-2.9,2.6-6,2.6-9.2c0-3.1-0.8-5.9-2.5-8.4c-1.7-2.5-4.1-4.6-7.4-6.1c4.2-1,7.5-3,9.9-6.1
								c2.3-3.1,3.5-6.9,3.5-11.5c0-6.2-2.3-11.5-6.8-15.9c-4.6-4.3-10.3-6.5-17.3-6.5c-6.3,0-11.5,1.9-15.7,5.6
								C90.5,8.1,88.2,12.9,87.6,18.9z"/>
						</g>
						<g>
							<path id="ArialMT-30_13_" class="st2" d="M143.2,35.3c0,8.5,0.9,15.3,2.6,20.4c1.7,5.2,4.3,9.1,7.8,11.9
								c3.4,2.8,7.8,4.2,13,4.2c3.8,0,7.2-0.8,10.1-2.3c2.9-1.5,5.3-3.8,7.2-6.7c1.9-2.9,3.4-6.5,4.5-10.6c1.1-4.2,1.6-9.8,1.6-16.9
								c0-8.4-0.9-15.2-2.6-20.3c-1.7-5.2-4.3-9.1-7.7-12c-3.4-2.8-7.8-4.2-13-4.2c-6.9,0-12.3,2.5-16.2,7.4
								C145.5,12.2,143.2,21.9,143.2,35.3z M152.2,35.3c0-11.8,1.4-19.6,4.1-23.5c2.8-3.9,6.1-5.8,10.2-5.8c4,0,7.4,2,10.2,5.9
								c2.8,3.9,4.1,11.7,4.1,23.4c0,11.8-1.4,19.6-4.1,23.5c-2.8,3.9-6.2,5.8-10.3,5.8c-4,0-7.3-1.7-9.7-5.1
								C153.7,55.1,152.2,47.1,152.2,35.3z"/>
						</g>
					</g>
				</g>
			</g>
			<g id="ytick_8">
				<g id="line2d_33">
					<g>
						<defs>
							<rect id="SVGID_33_" x="54" y="34.6" width="334.8" height="217.4"/>
						</defs>
						<clipPath id="SVGID_34_">
							<use xlink:href="#SVGID_33_"  style="overflow:visible;"/>
						</clipPath>
						<path class="st18" d="M54,72.5h334.8"/>
					</g>
				</g>
				<g id="line2d_34">
				</g>
				<g id="text_17">
					<g transform="translate(27.539062 76.085688)scale(0.1 -0.1)">
						<g>
							<path id="ArialMT-30_14_" class="st2" d="M4.2,35.3c0,8.5,0.9,15.3,2.6,20.4c1.7,5.2,4.3,9.1,7.7,11.9
								c3.4,2.8,7.8,4.2,13,4.2c3.8,0,7.2-0.8,10.1-2.3c2.9-1.5,5.3-3.8,7.2-6.7c1.9-2.9,3.4-6.5,4.5-10.6c1.1-4.2,1.6-9.8,1.6-16.9
								c0-8.4-0.9-15.2-2.6-20.3c-1.7-5.2-4.3-9.1-7.7-12c-3.4-2.8-7.8-4.2-13-4.2c-6.9,0-12.3,2.5-16.2,7.4
								C6.5,12.2,4.2,21.9,4.2,35.3z M13.2,35.3c0-11.8,1.4-19.6,4.1-23.5C20.1,7.9,23.5,6,27.5,6c4,0,7.4,2,10.2,5.9
								s4.1,11.7,4.1,23.4c0,11.8-1.4,19.6-4.1,23.5c-2.8,3.9-6.2,5.8-10.3,5.8c-4,0-7.3-1.7-9.7-5.1C14.7,55.1,13.2,47.1,13.2,35.3
								z"/>
						</g>
						<g>
							<path id="ArialMT-2e_7_" class="st2" d="M64.7,0v10h10V0H64.7z"/>
						</g>
						<g>
							<path id="ArialMT-33_3_" class="st2" d="M87.6,18.9l8.8,1.2c1-5,2.7-8.6,5.2-10.8s5.4-3.3,8.9-3.3c4.1,0,7.6,1.4,10.5,4.3
								c2.9,2.9,4.3,6.4,4.3,10.7c0,4-1.3,7.4-4,10c-2.6,2.6-6,3.9-10.1,3.9c-1.7,0-3.7-0.3-6.2-1l1,7.7c0.6-0.1,1.1-0.1,1.4-0.1
								c3.8,0,7.1,1,10.1,2.9c3,2,4.5,5,4.5,9c0,3.2-1.1,5.9-3.3,8c-2.2,2.1-5,3.2-8.4,3.2c-3.4,0-6.3-1.1-8.5-3.2
								c-2.3-2.1-3.7-5.4-4.4-9.7l-8.8,1.6c1.1,5.9,3.5,10.4,7.3,13.7c3.8,3.2,8.6,4.9,14.2,4.9c3.9,0,7.5-0.8,10.8-2.5
								c3.3-1.7,5.8-4,7.5-6.9c1.8-2.9,2.6-6,2.6-9.2c0-3.1-0.8-5.9-2.5-8.4c-1.7-2.5-4.1-4.6-7.4-6.1c4.2-1,7.5-3,9.9-6.1
								c2.3-3.1,3.5-6.9,3.5-11.5c0-6.3-2.3-11.5-6.8-15.9c-4.6-4.3-10.3-6.5-17.3-6.5c-6.3,0-11.5,1.9-15.7,5.6
								C90.5,8.1,88.2,12.9,87.6,18.9z"/>
						</g>
						<g>
							<path id="ArialMT-35_3_" class="st2" d="M143.2,18.8l9.2,0.8c0.7-4.5,2.3-7.9,4.8-10.1c2.5-2.3,5.5-3.4,9-3.4
								c4.2,0,7.8,1.6,10.7,4.8c2.9,3.2,4.4,7.4,4.4,12.7c0,5-1.4,9-4.2,11.9c-2.8,2.9-6.5,4.4-11.1,4.4c-2.8,0-5.4-0.6-7.7-1.9
								c-2.3-1.3-4.1-2.9-5.4-5l-8.2,1.1l6.9,36.8h35.6v-8.4h-28.6L154.8,43c4.3,3,8.8,4.5,13.5,4.5c6.2,0,11.5-2.2,15.8-6.5
								c4.3-4.3,6.5-9.9,6.5-16.7c0-6.5-1.9-12.1-5.7-16.8c-4.6-5.8-10.9-8.7-18.8-8.7c-6.5,0-11.8,1.8-16,5.5
								C146.1,7.9,143.8,12.7,143.2,18.8z"/>
						</g>
					</g>
				</g>
			</g>
			<g id="ytick_9">
				<g id="line2d_35">
					<g>
						<defs>
							<rect id="SVGID_35_" x="54" y="34.6" width="334.8" height="217.4"/>
						</defs>
						<clipPath id="SVGID_36_">
							<use xlink:href="#SVGID_35_"  style="overflow:visible;"/>
						</clipPath>
						<path class="st19" d="M54,46.9h334.8"/>
					</g>
				</g>
				<g id="line2d_36">
				</g>
				<g id="text_18">
					<g transform="translate(27.539062 50.4438)scale(0.1 -0.1)">
						<g>
							<path id="ArialMT-30_15_" class="st2" d="M4.2,35.3c0,8.5,0.9,15.3,2.6,20.4c1.7,5.2,4.3,9.1,7.7,11.9
								c3.4,2.8,7.8,4.2,13,4.2c3.8,0,7.2-0.8,10.1-2.3c2.9-1.5,5.3-3.8,7.2-6.7c1.9-2.9,3.4-6.5,4.5-10.6c1.1-4.2,1.6-9.8,1.6-16.9
								c0-8.4-0.9-15.2-2.6-20.3c-1.7-5.2-4.3-9.1-7.7-12c-3.4-2.8-7.8-4.2-13-4.2c-6.9,0-12.3,2.5-16.2,7.4
								C6.5,12.2,4.2,21.9,4.2,35.3z M13.2,35.3c0-11.7,1.4-19.6,4.1-23.5C20.1,7.9,23.5,6,27.5,6c4,0,7.4,2,10.2,5.9
								s4.1,11.7,4.1,23.4c0,11.8-1.4,19.6-4.1,23.5c-2.8,3.9-6.2,5.8-10.3,5.8c-4,0-7.3-1.7-9.7-5.1C14.7,55.1,13.2,47.1,13.2,35.3
								z"/>
						</g>
						<g>
							<path id="ArialMT-2e_8_" class="st2" d="M64.7,0v10h10V0H64.7z"/>
						</g>
						<g>
							<path id="ArialMT-34_2_" class="st2" d="M115.7,0v17.1H84.7v8.1l32.7,46.4h7.2V25.2h9.7v-8.1h-9.7V0H115.7z M115.7,25.2v32.3
								L93.3,25.2H115.7z"/>
						</g>
						<g>
							<path id="ArialMT-30_16_" class="st2" d="M143.2,35.3c0,8.5,0.9,15.3,2.6,20.4c1.7,5.2,4.3,9.1,7.8,11.9
								c3.4,2.8,7.8,4.2,13,4.2c3.8,0,7.2-0.8,10.1-2.3c2.9-1.5,5.3-3.8,7.2-6.7c1.9-2.9,3.4-6.5,4.5-10.6c1.1-4.2,1.6-9.8,1.6-16.9
								c0-8.4-0.9-15.2-2.6-20.3c-1.7-5.2-4.3-9.1-7.7-12c-3.4-2.8-7.8-4.2-13-4.2c-6.9,0-12.3,2.5-16.2,7.4
								C145.5,12.2,143.2,21.9,143.2,35.3z M152.2,35.3c0-11.7,1.4-19.6,4.1-23.5c2.8-3.9,6.1-5.8,10.2-5.8c4,0,7.4,2,10.2,5.9
								c2.8,3.9,4.1,11.7,4.1,23.4c0,11.8-1.4,19.6-4.1,23.5c-2.8,3.9-6.2,5.8-10.3,5.8c-4,0-7.3-1.7-9.7-5.1
								C153.7,55.1,152.2,47.1,152.2,35.3z"/>
						</g>
					</g>
				</g>
			</g>
		</g>
		<g id="PolyCollection_1">
			<g>
				<defs>
					<rect id="SVGID_37_" x="54" y="34.6" width="334.8" height="217.4"/>
				</defs>
				<clipPath id="SVGID_38_">
					<use xlink:href="#SVGID_37_"  style="overflow:visible;"/>
				</clipPath>
				<path class="st20" d="M69.2,251.7v0.3h2.4H74h2.4h2.4h2.4h2.4H86h2.4h2.4h2.4h2.4H98h2.4h2.4h2.4h2.4h2.4h2.4h2.4h2.4h2.4h2.4
					h2.4h2.4h2.4h2.4h2.4h2.4h2.4h2.4h2.4h2.4h2.4h2.4h2.4h2.4h2.4h2.4h2.4h2.4h2.4h2.4h2.4h2.4h2.4h2.4h2.4h2.4h2.4h2.4h2.4h2.4
					h2.4h2.4h2.4h2.4h2.4h2.4h2.4h2.4h2.4h2.4h2.4h2.4h2.4h2.4h2.4h2.4h2.4h2.4h2.4h2.4h2.4h2.4h2.4h2.4h2.4h2.4h2.4h2.4h2.4h2.4
					h2.4h2.4h2.4h2.4h2.4h2.4h2.4h2.4h2.4h2.4h2.4h2.4h2.4h2.4h2.4h2.4h2.4h2.4h2.4h2.4h2.4h2.4h2.4h2.4h2.4h2.4h2.4h2.4h2.4h2.4
					h2.4h2.4h2.4h2.4h2.4h2.4h2.4h2.4h2.4h2.4h2.4h2.4h2.4h2.4h2.4v-0.2l0,0l-2.4,0l-2.4-0.1l-2.4-0.1l-2.4-0.2l-2.4-0.2l-2.4-0.3
					l-2.4-0.4l-2.4-0.4l-2.4-0.5l-2.4-0.6l-2.4-0.7l-2.4-0.8l-2.4-0.9l-2.4-0.9l-2.4-0.9l-2.4-0.9l-2.4-0.8l-2.4-0.8l-2.4-0.7
					l-2.4-0.6l-2.4-0.5l-2.4-0.4l-2.4-0.4l-2.4-0.4l-2.4-0.5l-2.4-0.7l-2.4-0.9l-2.4-1.2l-2.4-1.5l-2.4-2l-2.4-2.4l-2.4-2.9
					l-2.4-3.4l-2.4-3.9l-2.4-4.3l-2.4-4.8l-2.4-5.2l-2.4-5.5l-2.4-5.8l-2.4-6l-2.4-6.2l-2.4-6.3l-2.4-6.4l-2.4-6.4l-2.4-6.5
					l-2.4-6.6l-2.4-6.7l-2.4-6.8l-2.4-7l-2.4-7.2l-2.4-7.5l-2.4-7.7l-2.4-7.8l-2.4-7.8l-2.4-7.7l-2.4-7.4l-2.4-7l-2.4-6.4l-2.4-5.6
					l-2.4-4.7l-2.4-3.7l-2.4-2.6l-2.4-1.5l-2.4-0.4l-2.4,0.7l-2.4,1.7L213,50l-2.4,3.6l-2.4,4.4l-2.4,5l-2.4,5.6l-2.4,6l-2.4,6.4
					l-2.4,6.6l-2.4,6.8l-2.4,6.8L189,108l-2.4,6.7l-2.4,6.7l-2.4,6.5l-2.4,6.4l-2.4,6.3l-2.4,6.2l-2.4,6.1l-2.4,6l-2.4,6l-2.4,5.9
					l-2.4,5.8l-2.4,5.7l-2.4,5.6l-2.4,5.4l-2.4,5.1l-2.4,4.8l-2.4,4.4l-2.4,4l-2.4,3.5l-2.4,3l-2.4,2.5l-2.4,2l-2.4,1.5l-2.4,1.2
					l-2.4,0.9l-2.4,0.8l-2.4,0.7l-2.4,0.8l-2.4,0.9l-2.4,1.1l-2.4,1.3l-2.4,1.4l-2.4,1.6l-2.4,1.7l-2.4,1.8l-2.4,1.8l-2.4,1.8
					l-2.4,1.7l-2.4,1.5l-2.4,1.4l-2.4,1.2l-2.4,1l-2.4,0.8l-2.4,0.6l-2.4,0.5l-2.4,0.4l-2.4,0.3l-2.4,0.2l-2.4,0.1L69.2,251.7z"/>
			</g>
		</g>
		<g id="PolyCollection_2">
			<g>
				<defs>
					<rect id="SVGID_39_" x="54" y="34.6" width="334.8" height="217.4"/>
				</defs>
				<clipPath id="SVGID_40_">
					<use xlink:href="#SVGID_39_"  style="overflow:visible;"/>
				</clipPath>
				<path class="st21" d="M69.2,251.7v0.3h2.4H74h2.4h2.4h2.4h2.4H86h2.4h2.4h2.4h2.4H98h2.4h2.4h2.4h2.4h2.4h2.4h2.4h2.4h2.4h2.4
					h2.4h2.4h2.4h2.4h2.4h2.4h2.4h2.4h2.4h2.4h2.4h2.4h2.4h2.4h2.4h2.4h2.4h2.4h2.4h2.4h2.4h2.4h2.4h2.4h2.4h2.4h2.4h2.4h2.4h2.4
					h2.4h2.4h2.4h2.4h2.4h2.4h2.4h2.4h2.4h2.4h2.4h2.4h2.4h2.4h2.4h2.4h2.4h2.4h2.4h2.4h2.4h2.4h2.4h2.4h2.4h2.4h2.4h2.4h2.4h2.4
					h2.4h2.4h2.4h2.4h2.4h2.4h2.4h2.4h2.4h2.4h2.4h2.4h2.4h2.4h2.4h2.4h2.4h2.4h2.4h2.4h2.4h2.4h2.4h2.4h2.4h2.4h2.4h2.4h2.4h2.4
					h2.4h2.4h2.4h2.4h2.4h2.4h2.4h2.4h2.4h2.4h2.4h2.4h2.4h2.4h2.4v-0.2l0,0l-2.4,0l-2.4-0.1l-2.4-0.1l-2.4-0.2l-2.4-0.2l-2.4-0.3
					l-2.4-0.4l-2.4-0.4l-2.4-0.5l-2.4-0.6l-2.4-0.7l-2.4-0.8l-2.4-0.9l-2.4-0.9l-2.4-0.9l-2.4-0.9l-2.4-0.8l-2.4-0.8l-2.4-0.7
					l-2.4-0.6l-2.4-0.5l-2.4-0.4l-2.4-0.4l-2.4-0.4l-2.4-0.5l-2.4-0.7l-2.4-0.9l-2.4-1.2l-2.4-1.5l-2.4-2l-2.4-2.4l-2.4-2.9
					l-2.4-3.4l-2.4-3.9l-2.4-4.3l-2.4-4.8l-2.4-5.2l-2.4-5.5l-2.4-5.8l-2.4-6l-2.4-6.2l-2.4-6.3l-2.4-6.4l-2.4-6.4l-2.4-6.5
					l-2.4-6.6l-2.4-6.7l-2.4-6.8l-2.4-7l-2.4-7.2l-2.4-7.5l-2.4-7.7l-2.4-7.8l-2.4-7.8l-2.4-7.7l-2.4-7.4l-2.4-7l-2.4-6.4l-2.4-5.6
					l-2.4-4.7l-2.4-3.7l-2.4-2.6l-2.4-1.5l-2.4-0.4l-2.4,0.7l-2.4,1.7L213,50l-2.4,3.6l-2.4,4.4l-2.4,5l-2.4,5.6l-2.4,6l-2.4,6.4
					l-2.4,6.6l-2.4,6.8l-2.4,6.8L189,108l-2.4,6.7l-2.4,6.7l-2.4,6.5l-2.4,6.4l-2.4,6.3l-2.4,6.2l-2.4,6.1l-2.4,6l-2.4,6l-2.4,5.9
					l-2.4,5.8l-2.4,5.7l-2.4,5.6l-2.4,5.4l-2.4,5.1l-2.4,4.8l-2.4,4.4l-2.4,4l-2.4,3.5l-2.4,3l-2.4,2.5l-2.4,2l-2.4,1.5l-2.4,1.2
					l-2.4,0.9l-2.4,0.8l-2.4,0.7l-2.4,0.8l-2.4,0.9l-2.4,1.1l-2.4,1.3l-2.4,1.4l-2.4,1.6l-2.4,1.7l-2.4,1.8l-2.4,1.8l-2.4,1.8
					l-2.4,1.7l-2.4,1.5l-2.4,1.4l-2.4,1.2l-2.4,1l-2.4,0.8l-2.4,0.6l-2.4,0.5l-2.4,0.4l-2.4,0.3l-2.4,0.2l-2.4,0.1L69.2,251.7z"/>
			</g>
		</g>
		<g id="line2d_37">
			<g>
				<defs>
					<rect id="SVGID_41_" x="54" y="34.6" width="334.8" height="217.4"/>
				</defs>
				<clipPath id="SVGID_42_">
					<use xlink:href="#SVGID_41_"  style="overflow:visible;"/>
				</clipPath>
				<path class="st22" d="M69.2,251.7l4.8-0.2l4.8-0.5l2.4-0.4l2.4-0.5l2.4-0.6l2.4-0.8l2.4-1l2.4-1.2l2.4-1.4l2.4-1.5l4.8-3.4
					l7.2-5.4l2.4-1.6l2.4-1.4l2.4-1.3l2.4-1.1l4.8-1.7l4.8-1.5l2.4-0.9l2.4-1.2l2.4-1.5l2.4-2l2.4-2.5l2.4-3l2.4-3.5l2.4-4l2.4-4.4
					l2.4-4.8l4.8-10.5l4.8-11.3l7.2-17.7l7.2-18.3l4.8-12.7L189,108l9.6-27l2.4-6.4l2.4-6l2.4-5.6l2.4-5l2.4-4.4L213,50l2.4-2.7
					l2.4-1.7l2.4-0.7l2.4,0.4l2.4,1.5l2.4,2.6l2.4,3.7l2.4,4.7l2.4,5.6l2.4,6.4l2.4,7l4.8,15.1l7.2,23.2l4.8,14.7l4.8,13.9l7.2,19.7
					l7.2,19.1l4.8,12.2l4.8,11.3l2.4,5.2l2.4,4.8l2.4,4.3l2.4,3.9l2.4,3.4l2.4,2.9l2.4,2.4l2.4,2l2.4,1.5l2.4,1.2l2.4,0.9l2.4,0.7
					l4.8,0.9l4.8,0.8l4.8,1l4.8,1.4l4.8,1.7l7.2,2.6l4.8,1.5l4.8,1.2l4.8,0.8l4.8,0.5l4.8,0.3l4.8,0.1l0,0"/>
			</g>
		</g>
		<g id="line2d_38">
			<g>
				<defs>
					<rect id="SVGID_43_" x="54" y="34.6" width="334.8" height="217.4"/>
				</defs>
				<clipPath id="SVGID_44_">
					<use xlink:href="#SVGID_43_"  style="overflow:visible;"/>
				</clipPath>
				<path class="st23" d="M69.2,251.7l4.8-0.2l4.8-0.5l2.4-0.4l2.4-0.5l2.4-0.6l2.4-0.8l2.4-1l2.4-1.2l2.4-1.4l2.4-1.5l4.8-3.4
					l7.2-5.4l2.4-1.6l2.4-1.4l2.4-1.3l2.4-1.1l4.8-1.7l4.8-1.5l2.4-0.9l2.4-1.2l2.4-1.5l2.4-2l2.4-2.5l2.4-3l2.4-3.5l2.4-4l2.4-4.4
					l2.4-4.8l4.8-10.5l4.8-11.3l7.2-17.7l7.2-18.3l4.8-12.7L189,108l9.6-27l2.4-6.4l2.4-6l2.4-5.6l2.4-5l2.4-4.4L213,50l2.4-2.7
					l2.4-1.7l2.4-0.7l2.4,0.4l2.4,1.5l2.4,2.6l2.4,3.7l2.4,4.7l2.4,5.6l2.4,6.4l2.4,7l4.8,15.1l7.2,23.2l4.8,14.7l4.8,13.9l7.2,19.7
					l7.2,19.1l4.8,12.2l4.8,11.3l2.4,5.2l2.4,4.8l2.4,4.3l2.4,3.9l2.4,3.4l2.4,2.9l2.4,2.4l2.4,2l2.4,1.5l2.4,1.2l2.4,0.9l2.4,0.7
					l4.8,0.9l4.8,0.8l4.8,1l4.8,1.4l4.8,1.7l7.2,2.6l4.8,1.5l4.8,1.2l4.8,0.8l4.8,0.5l4.8,0.3l4.8,0.1l0,0"/>
			</g>
		</g>
		<g id="patch_3">
			<path class="st0" d="M54,252V34.6"/>
		</g>
		<g id="patch_4">
			<path class="st0" d="M388.8,252V34.6"/>
		</g>
		<g id="patch_5">
			<path class="st0" d="M54,252h334.8"/>
		</g>
		<g id="patch_6">
			<path class="st0" d="M54,34.6h334.8"/>
		</g>
	</g>
</g>
</svg>
